# xmcd CD database file
#
# Track frame offsets:
#	150
#	14790
#	29622
#	42507
#	55777
#	68257
#	80420
#	94047
#	106020
#	117670
#	130392
#	142527
#	153512
#	164585
#	179385
#	194405
#	207615
#	218815
#	233262
#	245207
#	258427
#	270035
#
# Disc length: 3791 seconds
#
# Revision: 0
# Processed by: cddbd v1.4PL0 Copyright (c) Steve Scherf et al.
# Submitted via: CDex 1.50
#
DISCID=350ecd16
DTITLE=Nat King Cole - Legendary Singers
DYEAR=1988
DGENRE=Jazz
TTITLE0=Too Young
TTITLE1=Stardust
TTITLE2=Night Lights
TTITLE3=(I Love You) For Sentimental Reasons
TTITLE4=Pretend
TTITLE5=Walkin' My Baby Back Home
TTITLE6=(Get Your Kicks On) Route 66
TTITLE7=Answer Me, My Love
TTITLE8=A Blossom Fell
TTITLE9=Ramblin' Rose
TTITLE10=Nature Boy
TTITLE11=Those Lazy-Hazy-Crazy Days Of Summer
TTITLE12=Straighten Up And Fly Right
TTITLE13=Mona Lisa
TTITLE14=Lush Life
TTITLE15=Somewhere Along The Way
TTITLE16=Looking Back
TTITLE17=Sweet Lorraine
TTITLE18=Send For Me
TTITLE19=Smile
TTITLE20=Orange Colored Sky
TTITLE21=Unforgettable
EXTD=YEAR: 1988
EXTT0=
EXTT1=
EXTT2=
EXTT3=
EXTT4=
EXTT5=
EXTT6=
EXTT7=
EXTT8=
EXTT9=
EXTT10=
EXTT11=
EXTT12=
EXTT13=
EXTT14=
EXTT15=
EXTT16=
EXTT17=
EXTT18=
EXTT19=
EXTT20=
EXTT21=
PLAYORDER=
